<?xml version="1.0" encoding="UTF-8" standalone="no"?>
<svg
   xmlns:dc="http://purl.org/dc/elements/1.1/"
   xmlns:cc="http://creativecommons.org/ns#"
   xmlns:rdf="http://www.w3.org/1999/02/22-rdf-syntax-ns#"
   xmlns:svg="http://www.w3.org/2000/svg"
   xmlns="http://www.w3.org/2000/svg"
   viewBox="0 0 1204.5653 417.34134"
   height="417.34134"
   width="1204.5653"
   xml:space="preserve"
   id="svg2"
   version="1.1"><metadata
     id="metadata8"><rdf:RDF><cc:Work
         rdf:about=""><dc:format>image/svg+xml</dc:format><dc:type
           rdf:resource="http://purl.org/dc/dcmitype/StillImage" /></cc:Work></rdf:RDF></metadata><defs
     id="defs6"><radialGradient
       id="radialGradient34"
       spreadMethod="pad"
       gradientTransform="matrix(32.02568,153.55904,153.55904,-32.02568,392.27884,13.714119)"
       gradientUnits="userSpaceOnUse"
       r="1"
       cy="0"
       cx="0"
       fy="0"
       fx="0"><stop
         id="stop24"
         offset="0"
         style="stop-opacity:1;stop-color:#50ab3e" /><stop
         id="stop26"
         offset="0.00000008"
         style="stop-opacity:1;stop-color:#5cbf3b" /><stop
         id="stop28"
         offset="0.33280408"
         style="stop-opacity:1;stop-color:#5cbf3b" /><stop
         id="stop30"
         offset="1"
         style="stop-opacity:1;stop-color:#44a33c" /><stop
         id="stop32"
         offset="1"
         style="stop-opacity:1;stop-color:#44a33c" /></radialGradient><radialGradient
       id="radialGradient60"
       spreadMethod="pad"
       gradientTransform="matrix(-91.765221,140.66153,140.66153,91.765221,464.59073,100.48959)"
       gradientUnits="userSpaceOnUse"
       r="1"
       cy="0"
       cx="0"
       fy="0"
       fx="0"><stop
         id="stop50"
         offset="0"
         style="stop-opacity:1;stop-color:#50ab3e" /><stop
         id="stop52"
         offset="0.00000008"
         style="stop-opacity:1;stop-color:#5cbf3b" /><stop
         id="stop54"
         offset="0.33280408"
         style="stop-opacity:1;stop-color:#5cbf3b" /><stop
         id="stop56"
         offset="1"
         style="stop-opacity:1;stop-color:#44a33c" /><stop
         id="stop58"
         offset="1"
         style="stop-opacity:1;stop-color:#44a33c" /></radialGradient><radialGradient
       id="radialGradient86"
       spreadMethod="pad"
       gradientTransform="matrix(153.55904,-32.02568,-32.02568,-153.55904,354.50308,179.62064)"
       gradientUnits="userSpaceOnUse"
       r="1"
       cy="0"
       cx="0"
       fy="0"
       fx="0"><stop
         id="stop76"
         offset="0"
         style="stop-opacity:1;stop-color:#50ab3e" /><stop
         id="stop78"
         offset="0.00000008"
         style="stop-opacity:1;stop-color:#5cbf3b" /><stop
         id="stop80"
         offset="0.33280408"
         style="stop-opacity:1;stop-color:#5cbf3b" /><stop
         id="stop82"
         offset="1"
         style="stop-opacity:1;stop-color:#44a33c" /><stop
         id="stop84"
         offset="1"
         style="stop-opacity:1;stop-color:#44a33c" /></radialGradient><radialGradient
       id="radialGradient112"
       spreadMethod="pad"
       gradientTransform="matrix(163.03836,106.36349,106.36349,-163.03836,400.91272,101.29602)"
       gradientUnits="userSpaceOnUse"
       r="1"
       cy="0"
       cx="0"
       fy="0"
       fx="0"><stop
         id="stop102"
         offset="0"
         style="stop-opacity:1;stop-color:#50ab3e" /><stop
         id="stop104"
         offset="0.00000008"
         style="stop-opacity:1;stop-color:#5cbf3b" /><stop
         id="stop106"
         offset="0.33280408"
         style="stop-opacity:1;stop-color:#5cbf3b" /><stop
         id="stop108"
         offset="1"
         style="stop-opacity:1;stop-color:#44a33c" /><stop
         id="stop110"
         offset="1"
         style="stop-opacity:1;stop-color:#44a33c" /></radialGradient><radialGradient
       id="radialGradient138"
       spreadMethod="pad"
       gradientTransform="matrix(53.055504,34.612522,34.612522,-53.055504,451.79276,160.97795)"
       gradientUnits="userSpaceOnUse"
       r="1"
       cy="0"
       cx="0"
       fy="0"
       fx="0"><stop
         id="stop128"
         offset="0"
         style="stop-opacity:1;stop-color:#50ab3e" /><stop
         id="stop130"
         offset="0.00000008"
         style="stop-opacity:1;stop-color:#5cbf3b" /><stop
         id="stop132"
         offset="0.33280408"
         style="stop-opacity:1;stop-color:#5cbf3b" /><stop
         id="stop134"
         offset="1"
         style="stop-opacity:1;stop-color:#44a33c" /><stop
         id="stop136"
         offset="1"
         style="stop-opacity:1;stop-color:#44a33c" /></radialGradient><radialGradient
       id="radialGradient164"
       spreadMethod="pad"
       gradientTransform="matrix(152.03282,-31.70738,-31.70738,-152.03282,336.65842,180.17075)"
       gradientUnits="userSpaceOnUse"
       r="1"
       cy="0"
       cx="0"
       fy="0"
       fx="0"><stop
         id="stop154"
         offset="0"
         style="stop-opacity:1;stop-color:#50ab3e" /><stop
         id="stop156"
         offset="0.00000008"
         style="stop-opacity:1;stop-color:#5cbf3b" /><stop
         id="stop158"
         offset="0.33280408"
         style="stop-opacity:1;stop-color:#5cbf3b" /><stop
         id="stop160"
         offset="1"
         style="stop-opacity:1;stop-color:#44a33c" /><stop
         id="stop162"
         offset="1"
         style="stop-opacity:1;stop-color:#44a33c" /></radialGradient><clipPath
       id="clipPath174"
       clipPathUnits="userSpaceOnUse"><path
         id="path172"
         d="M 0,313.006 H 903.424 V 0 H 0 Z" /></clipPath></defs><g
     transform="matrix(1.3333333,0,0,-1.3333333,0,417.34133)"
     id="g10"><g
       id="g12"><g
         id="g14"><g
           id="g20"><g
             id="g22"><path
               id="path36"
               style="fill:url(#radialGradient34);stroke:none"
               d="m 387.953,165.443 c 0,-10.177 8.252,-18.459 18.416,-18.514 v 0 c 0.031,-0.001 0.059,-0.01 0.089,-0.01 v 0 l 14.99,-0.026 c 1.954,-0.004 3.541,1.576 3.544,3.53 v 0 c 10e-4,0.977 -0.394,1.861 -1.033,2.501 v 0 c -0.639,0.641 -1.522,1.039 -2.498,1.042 v 0 l -14.99,0.024 v 0.004 c -6.311,0 -11.448,5.136 -11.448,11.449 v 0 c 0,6.308 5.129,11.439 11.433,11.448 v 0 h 0.002 l 14.99,-0.027 c 1.954,-0.003 3.541,1.577 3.544,3.53 v 0 c 10e-4,0.978 -0.394,1.861 -1.033,2.502 v 0 c -0.639,0.641 -1.522,1.039 -2.498,1.041 v 0 l -14.99,0.024 c -10.211,0 -18.518,-8.307 -18.518,-18.518" /></g></g></g></g><g
       id="g38"><g
         id="g40"><g
           id="g46"><g
             id="g48"><path
               id="path62"
               style="fill:url(#radialGradient60);stroke:none"
               d="m 401.401,165.561 c -0.002,-0.975 0.391,-1.86 1.03,-2.502 v 0 c 0.638,-0.64 1.522,-1.037 2.499,-1.039 v 0 l 16.518,-0.026 c 1.954,-0.004 3.541,1.576 3.544,3.53 v 0 c 10e-4,0.977 -0.394,1.86 -1.033,2.501 v 0 c -0.639,0.641 -1.522,1.038 -2.498,1.041 v 0 l -16.52,0.024 c -0.003,0 -0.006,0 -0.009,0 v 0 c -1.949,0 -3.528,-1.578 -3.531,-3.529" /></g></g></g></g><g
       id="g64"><g
         id="g66"><g
           id="g72"><g
             id="g74"><path
               id="path88"
               style="fill:url(#radialGradient86);stroke:none"
               d="m 487.717,165.531 c -10e-4,-0.031 -0.009,-0.06 -0.009,-0.09 v 0 l -0.026,-14.991 c -0.004,-1.954 1.576,-3.539 3.53,-3.542 v 0 c 0.976,-10e-4 1.859,0.393 2.501,1.032 v 0 c 0.641,0.639 1.04,1.521 1.041,2.498 v 0 l 0.025,14.99 h 0.003 c 0,6.313 5.137,11.448 11.45,11.448 v 0 c 6.308,0 11.439,-5.128 11.448,-11.433 v 0 c 0,-0.001 -10e-4,-0.001 -10e-4,-0.001 v 0 l -0.025,-14.992 c -0.005,-1.954 1.576,-3.539 3.53,-3.542 v 0 c 0.976,-10e-4 1.859,0.393 2.501,1.032 v 0 c 0.641,0.639 1.038,1.521 1.041,2.498 v 0 l 0.024,14.99 c 0,10.211 -8.307,18.519 -18.518,18.519 v 0 c -10.177,0 -18.459,-8.254 -18.515,-18.416" /></g></g></g></g><g
       id="g90"><g
         id="g92"><g
           id="g98"><g
             id="g100"><path
               id="path114"
               style="fill:url(#radialGradient112);stroke:none"
               d="m 473.834,173.74 c -0.641,-0.638 -1.038,-1.522 -1.041,-2.499 v 0 l -0.025,-20.745 c -0.004,-1.954 1.576,-3.54 3.53,-3.542 v 0 c 0.977,-0.001 1.859,0.393 2.501,1.032 v 0 c 0.641,0.639 1.039,1.521 1.041,2.498 v 0 l 0.025,20.745 c 0.004,1.953 -1.575,3.538 -3.53,3.541 v 0 c -0.002,0 -0.005,0 -0.007,0 v 0 c -0.973,0 -1.855,-0.394 -2.494,-1.03" /></g></g></g></g><g
       id="g116"><g
         id="g118"><g
           id="g124"><g
             id="g126"><path
               id="path140"
               style="fill:url(#radialGradient138);stroke:none"
               d="m 473.834,182.87 c -0.641,-0.639 -1.038,-1.523 -1.041,-2.499 v 0 c -0.003,-1.954 1.576,-3.539 3.53,-3.543 v 0 c 0.978,-0.001 1.86,0.394 2.501,1.033 v 0 c 0.642,0.639 1.04,1.522 1.042,2.498 v 0 h -10e-4 c 0.004,1.953 -1.575,3.539 -3.53,3.542 v 0 c -0.976,0 -1.86,-0.393 -2.501,-1.031" /></g></g></g></g><g
       id="g142"><g
         id="g144"><g
           id="g150"><g
             id="g152"><path
               id="path166"
               style="fill:url(#radialGradient164);stroke:none"
               d="m 429.597,165.443 v -15.014 c 0,-1.953 1.585,-3.536 3.537,-3.536 v 0 c 1.952,0 3.535,1.583 3.535,3.536 v 0 0.473 14.541 c 0,6.312 5.137,11.448 11.449,11.448 v 0 c 6.313,0 11.448,-5.136 11.448,-11.448 v 0 c 0,-6.313 -5.135,-11.448 -11.448,-11.448 v 0 h -10e-4 v -0.001 c -0.973,0 -1.856,-0.394 -2.496,-1.031 v 0 c -0.64,-0.639 -1.037,-1.522 -1.04,-2.498 v 0 c -0.004,-1.954 1.576,-3.54 3.53,-3.543 v 0 c 0.004,0 0.006,0.001 0.011,0.001 v 0 c 10.208,0.001 18.515,8.309 18.515,18.52 v 0 c 0,10.211 -8.308,18.518 -18.519,18.518 v 0 c -10.212,0 -18.521,-8.307 -18.521,-18.518" /></g></g></g></g><g
       id="g168"><g
         clip-path="url(#clipPath174)"
         id="g170"><g
           transform="translate(391.8177,129.1856)"
           id="g176"><path
             id="path178"
             style="fill:#4e5257;fill-opacity:1;fill-rule:nonzero;stroke:none"
             d="M 0,0 V 8.507 H 6.309 V 7.068 H 1.718 V 5.182 H 5.989 V 3.749 H 1.718 V 1.434 H 6.471 V 0 Z" /></g><g
           transform="translate(410.1976,132.5513)"
           id="g180"><path
             id="path182"
             style="fill:#4e5257;fill-opacity:1;fill-rule:nonzero;stroke:none"
             d="M 0,0 -1.173,3.157 -2.321,0 Z M 3.162,-3.366 H 1.294 L 0.551,-1.433 H -2.85 l -0.702,-1.933 h -1.822 l 3.313,8.508 h 1.817 z" /></g><g
           transform="translate(419.7787,131.9537)"
           id="g184"><path
             id="path186"
             style="fill:#4e5257;fill-opacity:1;fill-rule:nonzero;stroke:none"
             d="m 0,0 1.671,0.163 c 0.1,-0.561 0.305,-0.974 0.612,-1.237 0.308,-0.262 0.723,-0.394 1.245,-0.394 0.553,0 0.97,0.117 1.25,0.351 0.282,0.234 0.421,0.508 0.421,0.821 0,0.201 -0.058,0.373 -0.177,0.514 C 4.904,0.359 4.698,0.482 4.404,0.586 4.203,0.656 3.745,0.78 3.029,0.958 2.108,1.186 1.462,1.466 1.091,1.799 0.568,2.267 0.308,2.838 0.308,3.511 0.308,3.944 0.43,4.35 0.676,4.727 0.922,5.104 1.275,5.391 1.738,5.588 2.2,5.786 2.758,5.885 3.412,5.885 4.479,5.885 5.283,5.65 5.823,5.182 6.363,4.714 6.646,4.089 6.674,3.308 L 4.956,3.232 C 4.882,3.669 4.725,3.984 4.482,4.175 4.241,4.367 3.878,4.463 3.395,4.463 2.896,4.463 2.505,4.36 2.223,4.155 2.04,4.023 1.949,3.848 1.949,3.627 1.949,3.426 2.035,3.254 2.205,3.111 2.422,2.929 2.948,2.739 3.783,2.542 4.619,2.345 5.237,2.141 5.638,1.93 6.038,1.719 6.352,1.431 6.578,1.065 6.804,0.699 6.917,0.248 6.917,-0.29 6.917,-0.777 6.781,-1.234 6.511,-1.66 6.24,-2.085 5.857,-2.401 5.362,-2.608 4.866,-2.815 4.25,-2.919 3.511,-2.919 2.436,-2.919 1.609,-2.67 1.033,-2.173 0.456,-1.676 0.112,-0.952 0,0" /></g><g
           transform="translate(436.3168,129.1856)"
           id="g188"><path
             id="path190"
             style="fill:#4e5257;fill-opacity:1;fill-rule:nonzero;stroke:none"
             d="m 0,0 v 3.581 l -3.116,4.926 h 2.013 L 0.899,5.142 2.861,8.507 H 4.84 L 1.712,3.569 V 0 Z" /></g><g
           transform="translate(458.6996,136.254)"
           id="g192"><path
             id="path194"
             style="fill:#4e5257;fill-opacity:1;fill-rule:nonzero;stroke:none"
             d="m 0,0 v -2.414 h 0.94 c 0.677,0 1.13,0.044 1.359,0.133 0.227,0.089 0.407,0.229 0.536,0.418 0.13,0.19 0.194,0.41 0.194,0.662 0,0.309 -0.091,0.564 -0.272,0.766 C 2.575,-0.234 2.345,-0.108 2.066,-0.058 1.861,-0.02 1.449,0 0.83,0 Z M -1.718,-7.068 V 1.439 H 1.039 C 2.084,1.439 2.765,1.396 3.082,1.312 3.569,1.184 3.978,0.906 4.307,0.479 4.635,0.051 4.8,-0.501 4.8,-1.178 4.8,-1.7 4.705,-2.14 4.516,-2.496 4.326,-2.852 4.085,-3.131 3.793,-3.334 3.501,-3.537 3.204,-3.671 2.902,-3.737 2.492,-3.818 1.898,-3.859 1.12,-3.859 H 0 v -3.209 z" /></g><g
           transform="translate(472.2738,133.4454)"
           id="g196"><path
             id="path198"
             style="fill:#4e5257;fill-opacity:1;fill-rule:nonzero;stroke:none"
             d="m 0,0 c 0,-0.963 0.223,-1.694 0.668,-2.191 0.444,-0.497 1.01,-0.746 1.694,-0.746 0.685,0 1.247,0.247 1.686,0.74 0.439,0.493 0.659,1.234 0.659,2.22 0,0.975 -0.214,1.702 -0.642,2.182 C 3.638,2.685 3.07,2.925 2.362,2.925 1.654,2.925 1.084,2.682 0.65,2.196 0.217,1.711 0,0.979 0,0 m -1.77,-0.058 c 0,0.867 0.13,1.594 0.389,2.182 0.194,0.433 0.457,0.822 0.792,1.166 0.335,0.345 0.701,0.6 1.1,0.766 0.53,0.225 1.141,0.337 1.834,0.337 1.254,0 2.257,-0.389 3.009,-1.166 0.752,-0.778 1.128,-1.86 1.128,-3.245 0,-1.373 -0.373,-2.448 -1.12,-3.223 -0.746,-0.776 -1.745,-1.164 -2.994,-1.164 -1.265,0 -2.271,0.386 -3.017,1.158 -0.747,0.772 -1.121,1.834 -1.121,3.189" /></g><g
           transform="translate(487.2455,129.1856)"
           id="g200"><path
             id="path202"
             style="fill:#4e5257;fill-opacity:1;fill-rule:nonzero;stroke:none"
             d="m 0,0 -2.03,8.507 h 1.758 L 1.01,2.664 2.565,8.507 H 4.608 L 6.1,2.565 7.405,8.507 h 1.73 L 7.068,0 H 5.246 L 3.552,6.36 1.863,0 Z" /></g><g
           transform="translate(503.1986,129.1856)"
           id="g204"><path
             id="path206"
             style="fill:#4e5257;fill-opacity:1;fill-rule:nonzero;stroke:none"
             d="M 0,0 V 8.507 H 6.309 V 7.068 H 1.718 V 5.182 H 5.989 V 3.749 H 1.718 V 1.434 H 6.471 V 0 Z" /></g><g
           transform="translate(518.7924,134.0953)"
           id="g208"><path
             id="path210"
             style="fill:#4e5257;fill-opacity:1;fill-rule:nonzero;stroke:none"
             d="m 0,0 h 1.271 c 0.825,0 1.338,0.035 1.543,0.104 0.206,0.07 0.367,0.19 0.483,0.36 0.116,0.17 0.174,0.383 0.174,0.639 0,0.286 -0.076,0.517 -0.23,0.693 C 3.089,1.972 2.873,2.083 2.595,2.13 2.455,2.149 2.037,2.159 1.341,2.159 H 0 Z M -1.718,-4.91 V 3.598 H 1.898 C 2.807,3.598 3.468,3.521 3.88,3.369 4.292,3.216 4.622,2.944 4.869,2.553 5.117,2.163 5.24,1.716 5.24,1.213 5.24,0.574 5.053,0.047 4.678,-0.369 4.303,-0.785 3.741,-1.047 2.995,-1.155 3.366,-1.372 3.673,-1.61 3.915,-1.869 4.156,-2.128 4.482,-2.588 4.893,-3.25 L 5.932,-4.91 H 3.877 L 2.635,-3.059 C 2.194,-2.397 1.893,-1.98 1.729,-1.808 1.567,-1.636 1.396,-1.518 1.213,-1.454 1.031,-1.39 0.743,-1.358 0.349,-1.358 H 0 V -4.91 Z" /></g></g></g></g></svg>