<svg width="200" height="90" xmlns="http://www.w3.org/2000/svg">
 <metadata id="metadata8">image/svg+xml</metadata>
 <defs>
  <clipPath clipPathUnits="userSpaceOnUse" id="clipPath174">
   <path d="m-383.25,436.756l903.424,0l0,-313.006l-903.424,0l0,313.006z" id="path172"/>
  </clipPath>
  <radialGradient fx="0" fy="0" cx="0" cy="0" r="1" gradientUnits="userSpaceOnUse" gradientTransform="matrix(32.02568,153.55904,153.55904,-32.02568,392.27884,13.714119)" spreadMethod="pad" id="radialGradient34">
   <stop stop-color="#50ab3e" offset="0" id="stop24"/>
   <stop stop-color="#5cbf3b" offset="0" id="stop26"/>
   <stop stop-color="#5cbf3b" offset="0.332804" id="stop28"/>
   <stop stop-color="#44a33c" offset="1" id="stop30"/>
   <stop stop-color="#44a33c" offset="1" id="stop32"/>
  </radialGradient>
  <radialGradient fx="0" fy="0" cx="0" cy="0" r="1" gradientUnits="userSpaceOnUse" gradientTransform="matrix(-91.765221,140.66153,140.66153,91.765221,464.59073,100.48959)" spreadMethod="pad" id="radialGradient60">
   <stop stop-color="#50ab3e" offset="0" id="stop50"/>
   <stop stop-color="#5cbf3b" offset="0" id="stop52"/>
   <stop stop-color="#5cbf3b" offset="0.332804" id="stop54"/>
   <stop stop-color="#44a33c" offset="1" id="stop56"/>
   <stop stop-color="#44a33c" offset="1" id="stop58"/>
  </radialGradient>
  <radialGradient fx="0" fy="0" cx="0" cy="0" r="1" gradientUnits="userSpaceOnUse" gradientTransform="matrix(153.55904,-32.02568,-32.02568,-153.55904,354.50308,179.62064)" spreadMethod="pad" id="radialGradient86">
   <stop stop-color="#50ab3e" offset="0" id="stop76"/>
   <stop stop-color="#5cbf3b" offset="0" id="stop78"/>
   <stop stop-color="#5cbf3b" offset="0.332804" id="stop80"/>
   <stop stop-color="#44a33c" offset="1" id="stop82"/>
   <stop stop-color="#44a33c" offset="1" id="stop84"/>
  </radialGradient>
  <radialGradient fx="0" fy="0" cx="0" cy="0" r="1" gradientUnits="userSpaceOnUse" gradientTransform="matrix(163.03836,106.36349,106.36349,-163.03836,400.91272,101.29602)" spreadMethod="pad" id="radialGradient112">
   <stop stop-color="#50ab3e" offset="0" id="stop102"/>
   <stop stop-color="#5cbf3b" offset="0" id="stop104"/>
   <stop stop-color="#5cbf3b" offset="0.332804" id="stop106"/>
   <stop stop-color="#44a33c" offset="1" id="stop108"/>
   <stop stop-color="#44a33c" offset="1" id="stop110"/>
  </radialGradient>
  <radialGradient fx="0" fy="0" cx="0" cy="0" r="1" gradientUnits="userSpaceOnUse" gradientTransform="matrix(53.055504,34.612522,34.612522,-53.055504,451.79276,160.97795)" spreadMethod="pad" id="radialGradient138">
   <stop stop-color="#50ab3e" offset="0" id="stop128"/>
   <stop stop-color="#5cbf3b" offset="0" id="stop130"/>
   <stop stop-color="#5cbf3b" offset="0.332804" id="stop132"/>
   <stop stop-color="#44a33c" offset="1" id="stop134"/>
   <stop stop-color="#44a33c" offset="1" id="stop136"/>
  </radialGradient>
  <radialGradient fx="0" fy="0" cx="0" cy="0" r="1" gradientUnits="userSpaceOnUse" gradientTransform="matrix(152.03282,-31.70738,-31.70738,-152.03282,336.65842,180.17075)" spreadMethod="pad" id="radialGradient164">
   <stop stop-color="#50ab3e" offset="0" id="stop154"/>
   <stop stop-color="#5cbf3b" offset="0" id="stop156"/>
   <stop stop-color="#5cbf3b" offset="0.332804" id="stop158"/>
   <stop stop-color="#44a33c" offset="1" id="stop160"/>
   <stop stop-color="#44a33c" offset="1" id="stop162"/>
  </radialGradient>
 </defs>
 <g>
  <title>background</title>
  <rect fill="none" id="canvas_background" height="92" width="202" y="-1" x="-1"/>
 </g>
 <g>
  <title>Layer 1</title>
  <g id="g10" transform="matrix(1.3333333,0,0,-1.3333333,0,417.34133) ">
   <g id="g12">
    <g id="g14">
     <g id="g20">
      <g id="g22">
       <path fill="url(#radialGradient34)" d="m4.703,289.193c0,-10.177 8.252,-18.459 18.416,-18.514l0,0c0.031,-0.001 0.059,-0.01 0.089,-0.01l0,0l14.99,-0.026c1.954,-0.004 3.541,1.576 3.544,3.53l0,0c0.001,0.977 -0.394,1.861 -1.033,2.501l0,0c-0.639,0.641 -1.522,1.039 -2.498,1.042l0,0l-14.99,0.024l0,0.004c-6.311,0 -11.448,5.136 -11.448,11.449l0,0c0,6.308 5.129,11.439 11.433,11.448l0,0l0.002,0l14.99,-0.027c1.954,-0.003 3.541,1.577 3.544,3.53l0,0c0.001,0.978 -0.394,1.861 -1.033,2.502l0,0c-0.639,0.641 -1.522,1.039 -2.498,1.041l0,0l-14.99,0.024c-10.211,0 -18.518,-8.307 -18.518,-18.518" id="path36"/>
      </g>
     </g>
    </g>
   </g>
   <g id="g38">
    <g id="g40">
     <g id="g46">
      <g id="g48">
       <path fill="url(#radialGradient60)" d="m18.151,289.311c-0.002,-0.975 0.391,-1.86 1.03,-2.502l0,0c0.638,-0.64 1.522,-1.037 2.499,-1.039l0,0l16.518,-0.026c1.954,-0.004 3.541,1.576 3.544,3.53l0,0c0.001,0.977 -0.394,1.86 -1.033,2.501l0,0c-0.639,0.641 -1.522,1.038 -2.498,1.041l0,0l-16.52,0.024c-0.003,0 -0.006,0 -0.009,0l0,0c-1.949,0 -3.528,-1.578 -3.531,-3.529" id="path62"/>
      </g>
     </g>
    </g>
   </g>
   <g id="g64">
    <g id="g66">
     <g id="g72">
      <g id="g74">
       <path fill="url(#radialGradient86)" d="m104.467,289.281c-0.001,-0.031 -0.009,-0.06 -0.009,-0.09l0,0l-0.026,-14.991c-0.004,-1.954 1.576,-3.539 3.53,-3.542l0,0c0.976,-0.001 1.859,0.393 2.501,1.032l0,0c0.641,0.639 1.04,1.521 1.041,2.498l0,0l0.025,14.99l0.003,0c0,6.313 5.137,11.448 11.45,11.448l0,0c6.308,0 11.439,-5.128 11.448,-11.433l0,0c0,-0.001 -0.001,-0.001 -0.001,-0.001l0,0l-0.025,-14.992c-0.005,-1.954 1.576,-3.539 3.53,-3.542l0,0c0.976,-0.001 1.859,0.393 2.501,1.032l0,0c0.641,0.639 1.038,1.521 1.041,2.498l0,0l0.024,14.99c0,10.211 -8.307,18.519 -18.518,18.519l0,0c-10.177,0 -18.459,-8.254 -18.515,-18.416" id="path88"/>
      </g>
     </g>
    </g>
   </g>
   <g id="g90">
    <g id="g92">
     <g id="g98">
      <g id="g100">
       <path fill="url(#radialGradient112)" d="m90.584,297.49c-0.641,-0.638 -1.038,-1.522 -1.041,-2.499l0,0l-0.025,-20.745c-0.004,-1.954 1.576,-3.54 3.53,-3.542l0,0c0.977,-0.001 1.859,0.393 2.501,1.032l0,0c0.641,0.639 1.039,1.521 1.041,2.498l0,0l0.025,20.745c0.004,1.953 -1.575,3.538 -3.53,3.541l0,0c-0.002,0 -0.005,0 -0.007,0l0,0c-0.973,0 -1.855,-0.394 -2.494,-1.03" id="path114"/>
      </g>
     </g>
    </g>
   </g>
   <g id="g116">
    <g id="g118">
     <g id="g124">
      <g id="g126">
       <path fill="url(#radialGradient138)" d="m90.584,306.62c-0.641,-0.639 -1.038,-1.523 -1.041,-2.499l0,0c-0.003,-1.954 1.576,-3.539 3.53,-3.543l0,0c0.978,-0.001 1.86,0.394 2.501,1.033l0,0c0.642,0.639 1.04,1.522 1.042,2.498l0,0l-0.001,0c0.004,1.953 -1.575,3.539 -3.53,3.542l0,0c-0.976,0 -1.86,-0.393 -2.501,-1.031" id="path140"/>
      </g>
     </g>
    </g>
   </g>
   <g id="g142">
    <g id="g144">
     <g id="g150">
      <g id="g152">
       <path fill="url(#radialGradient164)" d="m46.347,289.193l0,-15.014c0,-1.953 1.585,-3.536 3.537,-3.536l0,0c1.952,0 3.535,1.583 3.535,3.536l0,0l0,0.473l0,14.541c0,6.312 5.137,11.448 11.449,11.448l0,0c6.313,0 11.448,-5.136 11.448,-11.448l0,0c0,-6.313 -5.135,-11.448 -11.448,-11.448l0,0l-0.001,0l0,-0.001c-0.973,0 -1.856,-0.394 -2.496,-1.031l0,0c-0.64,-0.639 -1.037,-1.522 -1.04,-2.498l0,0c-0.004,-1.954 1.576,-3.54 3.53,-3.543l0,0c0.004,0 0.006,0.001 0.011,0.001l0,0c10.208,0.001 18.515,8.309 18.515,18.52l0,0c0,10.211 -8.308,18.518 -18.519,18.518l0,0c-10.212,0 -18.521,-8.307 -18.521,-18.518" id="path166"/>
      </g>
     </g>
    </g>
   </g>
   <g id="g168">
    <g id="g170" clip-path="url(#clipPath174)">
     <g id="g176">
      <path fill="#4e5257" fill-rule="nonzero" d="m8.567688,252.935593l0,8.507l6.309,0l0,-1.439l-4.591,0l0,-1.886l4.271,0l0,-1.433l-4.271,0l0,-2.315l4.753,0l0,-1.434l-6.471,0z" id="path178"/>
     </g>
     <g id="g180">
      <path fill="#4e5257" fill-rule="nonzero" d="m26.947601,256.3013l-1.173,3.157l-1.148,-3.157l2.321,0zm3.162,-3.366l-1.868,0l-0.743,1.933l-3.401,0l-0.702,-1.933l-1.822,0l3.313,8.508l1.817,0l3.406,-8.508z" id="path182"/>
     </g>
     <g id="g184">
      <path fill="#4e5257" fill-rule="nonzero" d="m36.528687,255.703705l1.671,0.163c0.1,-0.561 0.305,-0.974 0.612,-1.237c0.308,-0.262 0.723,-0.394 1.245,-0.394c0.553,0 0.97,0.117 1.25,0.351c0.282,0.234 0.421,0.508 0.421,0.821c0,0.201 -0.058,0.373 -0.177,0.514c-0.118,0.141 -0.324,0.264 -0.618,0.368c-0.201,0.07 -0.659,0.194 -1.375,0.372c-0.921,0.228 -1.567,0.508 -1.938,0.841c-0.523,0.468 -0.783,1.039 -0.783,1.712c0,0.433 0.122,0.839 0.368,1.216c0.246,0.377 0.599,0.664 1.062,0.861c0.462,0.198 1.02,0.297 1.674,0.297c1.067,0 1.871,-0.235 2.411,-0.703c0.54,-0.468 0.823,-1.093 0.851,-1.874l-1.718,-0.076c-0.074,0.437 -0.231,0.752 -0.474,0.943c-0.241,0.192 -0.604,0.288 -1.087,0.288c-0.499,0 -0.89,-0.103 -1.172,-0.308c-0.183,-0.132 -0.274,-0.307 -0.274,-0.528c0,-0.201 0.086,-0.373 0.256,-0.516c0.217,-0.182 0.743,-0.372 1.578,-0.569c0.836,-0.197 1.454,-0.401 1.855,-0.612c0.4,-0.211 0.714,-0.499 0.94,-0.865c0.226,-0.366 0.339,-0.817 0.339,-1.355c0,-0.487 -0.136,-0.944 -0.406,-1.37c-0.271,-0.425 -0.654,-0.741 -1.149,-0.948c-0.496,-0.207 -1.112,-0.311 -1.851,-0.311c-1.075,0 -1.902,0.249 -2.478,0.746c-0.577,0.497 -0.921,1.221 -1.033,2.173" id="path186"/>
     </g>
     <g id="g188">
      <path fill="#4e5257" fill-rule="nonzero" d="m53.066803,252.935593l0,3.581l-3.116,4.926l2.013,0l2.002,-3.365l1.962,3.365l1.979,0l-3.128,-4.938l0,-3.569l-1.712,0z" id="path190"/>
     </g>
     <g id="g192">
      <path fill="#4e5257" fill-rule="nonzero" d="m75.449585,260.003998l0,-2.414l0.94,0c0.677,0 1.13,0.044 1.359,0.133c0.227,0.089 0.407,0.229 0.536,0.418c0.13,0.19 0.194,0.41 0.194,0.662c0,0.309 -0.091,0.564 -0.272,0.766c-0.182,0.201 -0.412,0.327 -0.691,0.377c-0.205,0.038 -0.617,0.058 -1.236,0.058l-0.83,0zm-2.548,-7.068l0,8.507l3.587,0c1.045,0 1.726,-0.043 2.043,-0.127c0.487,-0.128 0.896,-0.406 1.225,-0.833c0.328,-0.428 0.493,-0.98 0.493,-1.657c0,-0.522 -0.095,-0.962 -0.284,-1.318c-0.19,-0.356 -0.431,-0.635 -0.723,-0.838c-0.292,-0.203 -0.589,-0.337 -0.891,-0.403c-0.41,-0.081 -1.004,-0.122 -1.782,-0.122l-1.12,0l0,-3.209l-2.548,0z" id="path194"/>
     </g>
     <g id="g196">
      <path fill="#4e5257" fill-rule="nonzero" d="m89.023804,257.195404c0,-0.963 0.223,-1.694 0.668,-2.191c0.444,-0.497 1.01,-0.746 1.694,-0.746c0.685,0 1.247,0.247 1.686,0.74c0.439,0.493 0.659,1.234 0.659,2.22c0,0.975 -0.214,1.702 -0.642,2.182c-0.427,0.48 -0.995,0.72 -1.703,0.72c-0.708,0 -1.278,-0.243 -1.712,-0.729c-0.433,-0.485 -0.65,-1.217 -0.65,-2.196m-1.77,-0.058c0,0.867 0.13,1.594 0.389,2.182c0.194,0.433 0.457,0.822 0.792,1.166c0.335,0.345 0.701,0.6 1.1,0.766c0.53,0.225 1.141,0.337 1.834,0.337c1.254,0 2.257,-0.389 3.009,-1.166c0.752,-0.778 1.128,-1.86 1.128,-3.245c0,-1.373 -0.373,-2.448 -1.12,-3.223c-0.746,-0.776 -1.745,-1.164 -2.994,-1.164c-1.265,0 -2.271,0.386 -3.017,1.158c-0.747,0.772 -1.121,1.834 -1.121,3.189" id="path198"/>
     </g>
     <g id="g200">
      <path fill="#4e5257" fill-rule="nonzero" d="m103.995514,252.935593l-2.03,8.507l1.758,0l1.282,-5.843l1.555,5.843l2.043,0l1.492,-5.942l1.305,5.942l1.73,0l-2.067,-8.507l-1.822,0l-1.694,6.36l-1.689,-6.36l-1.863,0z" id="path202"/>
     </g>
     <g id="g204">
      <path fill="#4e5257" fill-rule="nonzero" d="m119.948608,252.935593l0,8.507l6.309,0l0,-1.439l-4.591,0l0,-1.886l4.271,0l0,-1.433l-4.271,0l0,-2.315l4.753,0l0,-1.434l-6.471,0z" id="path206"/>
     </g>
     <g id="g208">
      <path fill="#4e5257" fill-rule="nonzero" d="m135.542419,257.845306l1.271,0c0.825,0 1.338,0.035 1.543,0.104c0.206,0.07 0.367,0.19 0.483,0.36c0.116,0.17 0.174,0.383 0.174,0.639c0,0.286 -0.076,0.517 -0.23,0.693c-0.152,0.176 -0.368,0.287 -0.646,0.334c-0.14,0.019 -0.558,0.029 -1.254,0.029l-1.341,0l0,-2.159zm-1.718,-7.069l0,10.667l3.616,0c0.909,0 1.57,-0.077 1.982,-0.229c0.412,-0.153 0.742,-0.425 0.989,-0.816c0.248,-0.39 0.371,-0.837 0.371,-1.34c0,-0.639 -0.187,-1.166 -0.562,-1.582c-0.375,-0.416 -0.937,-0.678 -1.683,-0.786c0.371,-0.217 0.678,-0.455 0.92,-0.714c0.241,-0.259 0.567,-0.719 0.978,-1.381l1.039,-1.66l-2.055,0l-1.242,1.851c-0.441,0.662 -0.742,1.079 -0.906,1.251c-0.162,0.172 -0.333,0.29 -0.516,0.354c-0.182,0.064 -0.47,0.096 -0.864,0.096l-0.349,0l0,-3.552l-1.718,-2.159z" id="path210"/>
     </g>
    </g>
   </g>
  </g>
 </g>
</svg>