<?xml version="1.0" encoding="UTF-8"?>
<svg width="34px" height="29px" viewBox="0 0 34 29" version="1.1" xmlns="http://www.w3.org/2000/svg" xmlns:xlink="http://www.w3.org/1999/xlink">
    <title>xiangxiashuangjiantou</title>
    <g id="页面-1" stroke="none" stroke-width="1" fill="none" fill-rule="evenodd" stroke-linejoin="round">
        <g id="pc官网" transform="translate(-944.000000, -1052.000000)" fill="#48A33C" stroke="#48A33C" stroke-width="2">
            <g id="xiangxiashuangjiantou" transform="translate(945.000000, 1053.000000)">
                <path d="M30.5384911,12.2623331 C30.8735278,11.9451216 31.4159023,11.9441685 31.7501002,12.2606255 C32.0839626,12.5767648 32.0832916,13.090387 31.7481291,13.4075985 L18.401264,26.0461029 C17.0610753,27.3151475 14.8914937,27.3184038 13.5553729,26.0532112 L0.24998368,13.4541398 C-0.084046512,13.1378417 -0.083207767,12.6242195 0.251786982,12.3068491 C0.586781731,11.9897964 1.12919812,11.9890022 1.46339606,12.3053004 L14.7687853,24.9042526 C15.4370134,25.5369681 16.5214687,25.5352605 17.1916679,24.9005198 L30.5384911,12.2621742 L30.5384911,12.2623331 Z M30.5384911,0.238435955 C30.8735278,-0.0786564329 31.4159023,-0.0797286301 31.7501002,0.236728382 C32.0839626,0.552867705 32.0832916,1.066609 31.7481291,1.38370139 L18.401264,14.0221661 C17.0610753,15.2912107 14.8914937,15.294467 13.5553729,14.029314 L0.24998368,1.43024268 C-0.084046512,1.11394452 -0.083207767,0.600322358 0.251786982,0.283110837 C0.586781731,-0.0341006835 1.12919812,-0.0348949036 1.46339606,0.281403264 L14.7687853,12.8803555 C15.4370134,13.513071 16.5214687,13.5113634 17.1916679,12.8767815 L30.5384911,0.238277111 L30.5384911,0.238435955 Z" id="Fill-1"></path>
            </g>
        </g>
    </g>
</svg>