<?xml version="1.0" encoding="UTF-8"?>
<svg width="22px" height="22px" viewBox="0 0 22 22" version="1.1" xmlns="http://www.w3.org/2000/svg" xmlns:xlink="http://www.w3.org/1999/xlink">
    <title>箭头</title>
    <g id="页面-1" stroke="none" stroke-width="1" fill="none" fill-rule="evenodd">
        <g id="扫描充电宝" transform="translate(-12.000000, -55.000000)">
            <g id="箭头" transform="translate(12.000000, 55.000000)">
                <rect id="bg" x="0" y="0" width="22" height="22"></rect>
                <g id="left" transform="translate(5.500000, 1.500000)" fill="#333333" fill-rule="nonzero">
                    <path d="M10.3481825,1.71236897 L2.20939764,9.02602397 C1.94761023,9.26127815 1.92610434,9.6641751 2.16133704,9.92596251 L2.16133701,9.92596248 C2.17649184,9.94281849 2.19253472,9.95885423 2.20939761,9.9740016 L10.3481825,17.2876781 C10.6747454,17.581112 10.7015579,18.0837181 10.4081239,18.4102595 C10.11469,18.7368223 9.61208396,18.7636349 9.28552108,18.4702009 L1.14673622,11.1565459 L1.14673603,11.1565458 C1.08780733,11.1035919 1.03174636,11.0475309 0.978792472,10.9886022 C0.156670422,10.073732 0.231865822,8.66562295 1.14673603,7.8435009 L9.28552089,0.529845904 C9.61208377,0.236390485 10.1146898,0.2632245 10.4081238,0.58978738 C10.7015577,0.916328776 10.6747452,1.41893483 10.3481823,1.71236876 L10.3481825,1.71236897 Z" id="路径"></path>
                </g>
            </g>
        </g>
    </g>
</svg>