<?xml version="1.0" encoding="UTF-8"?>
<svg width="64px" height="64px" viewBox="0 0 64 64" version="1.1" xmlns="http://www.w3.org/2000/svg" xmlns:xlink="http://www.w3.org/1999/xlink">
    <title>ic_Location</title>
    <defs>
        <rect id="path-1" x="0" y="0" width="44" height="44" rx="22"></rect>
        <filter x="-39.8%" y="-28.4%" width="179.5%" height="179.5%" filterUnits="objectBoundingBox" id="filter-2">
            <feOffset dx="0" dy="5" in="SourceAlpha" result="shadowOffsetOuter1"></feOffset>
            <feGaussianBlur stdDeviation="5" in="shadowOffsetOuter1" result="shadowBlurOuter1"></feGaussianBlur>
            <feColorMatrix values="0 0 0 0 0   0 0 0 0 0   0 0 0 0 0  0 0 0 0.1 0" type="matrix" in="shadowBlurOuter1"></feColorMatrix>
        </filter>
    </defs>
    <g id="页面-1" stroke="none" stroke-width="1" fill="none" fill-rule="evenodd">
        <g id="扫描地图" transform="translate(-305.000000, -395.000000)">
            <g id="ic_Location" transform="translate(0.000000, -6.000000)">
                <g transform="translate(315.000000, 406.000000)">
                    <g id="Rectangle">
                        <use fill="black" fill-opacity="1" filter="url(#filter-2)" xlink:href="#path-1"></use>
                        <use fill="#FFFFFF" fill-rule="evenodd" xlink:href="#path-1"></use>
                    </g>
                    <path d="M22,18 C19.79,18 18,19.79 18,22 C18,24.21 19.79,26 22,26 C24.21,26 26,24.21 26,22 C26,19.79 24.21,18 22,18 Z M30.94,21 C30.48,16.83 27.17,13.52 23,13.06 L23,11 L21,11 L21,13.06 C16.83,13.52 13.52,16.83 13.06,21 L11,21 L11,23 L13.06,23 C13.52,27.17 16.83,30.48 21,30.94 L21,33 L23,33 L23,30.94 C27.17,30.48 30.48,27.17 30.94,23 L33,23 L33,21 L30.94,21 Z M22,29 C18.13,29 15,25.87 15,22 C15,18.13 18.13,15 22,15 C25.87,15 29,18.13 29,22 C29,25.87 25.87,29 22,29 Z" id="Shape" fill="#000000" fill-rule="nonzero"></path>
                </g>
            </g>
        </g>
    </g>
</svg>