<?xml version="1.0" encoding="UTF-8"?>
<svg width="17px" height="17px" viewBox="0 0 17 17" version="1.1" xmlns="http://www.w3.org/2000/svg" xmlns:xlink="http://www.w3.org/1999/xlink">
    <title>kefu (1)</title>
    <defs>
        <polygon id="path-1" points="0 0.0122913907 16.6619126 0.0122913907 16.6619126 15.9999682 0 15.9999682"></polygon>
    </defs>
    <g id="页面-1" stroke="none" stroke-width="1" fill="none" fill-rule="evenodd">
        <g id="扫描地图" transform="translate(-343.000000, -59.000000)">
            <g id="7" transform="translate(0.000000, 44.000000)">
                <g id="kefu-(1)" transform="translate(343.000000, 15.500000)">
                    <mask id="mask-2" fill="white">
                        <use xlink:href="#path-1"></use>
                    </mask>
                    <g id="Clip-2"></g>
                    <path d="M0.87690596,8.76278675 L0.87690596,10.5202437 C0.87690596,11.2467285 1.46581192,11.8356344 2.19229669,11.8356344 C2.91878146,11.8356344 3.50770861,11.2467285 3.50770861,10.5202437 L3.50770861,8.76278675 C3.50770861,8.03630199 2.91878146,7.44739603 2.19229669,7.44739603 C1.46581192,7.44739603 0.87690596,8.03630199 0.87690596,8.76278675 Z M12.9667179,12.1144583 C12.5262411,11.7012768 12.2765775,11.1241325 12.2769801,10.5202437 L12.2769801,8.76278675 C12.2783152,7.55899338 13.2500768,6.58142517 14.4538914,6.57288477 C14.2235126,3.36122914 11.5508344,0.873303311 8.33087152,0.873303311 C5.11101457,0.873303311 2.43825166,3.36122914 2.20787285,6.57288477 C3.41143311,6.58199735 4.38285563,7.55922649 4.38476291,8.76278675 L4.38476291,10.5202437 C4.39495629,11.3101351 3.97929536,12.0445033 3.29684768,12.4424265 C2.6144,12.8403497 1.77061722,12.8403497 1.08816954,12.4424265 C0.405637086,12.0445033 -0.00993907285,11.3101351 0.000169536424,10.5202437 L0.000169536424,8.76278675 C0.000741721854,7.8898649 0.51912053,7.10046093 1.31994702,6.75293245 C1.46803709,2.98812185 4.56324238,0.0122913907 8.33104106,0.0122913907 C12.0988397,0.0122913907 15.194045,2.98812185 15.3422199,6.75293245 C16.1427073,7.10077881 16.6610013,7.89003444 16.6619126,8.76278675 L16.6619126,10.5202437 C16.6613404,11.2324874 16.3148079,11.9001219 15.7326199,12.3104848 C15.1504106,12.7208265 14.4052132,12.8228026 13.7341881,12.5839894 C12.9062993,13.4562543 11.8797139,14.1153483 10.7419762,14.5051762 C10.7209536,15.3389563 10.0374252,16.0030305 9.20339073,15.9999682 L7.89560795,15.9999682 C7.04809536,15.9999682 6.36100662,15.3129536 6.36100662,14.4653563 C6.36100662,13.6178437 7.04809536,12.930755 7.89560795,12.930755 L9.20199205,12.930755 C9.73452715,12.9286781 10.2301245,13.2023523 10.512,13.6541881 C11.4343629,13.3291868 12.2726781,12.8027762 12.9659762,12.1130384 L12.9667179,12.1144583 Z M13.153653,8.76278675 L13.153653,10.5202437 C13.153653,11.2467285 13.7426225,11.8356344 14.4691285,11.8356344 C15.1956132,11.8356344 15.7845192,11.2467285 15.7845192,10.5202437 L15.7845192,8.76278675 C15.7845192,8.03630199 15.1956132,7.44739603 14.4691285,7.44739603 C13.7426225,7.44739603 13.153653,8.03630199 13.153653,8.76278675 Z M7.89668874,15.1207417 L9.20455629,15.1207417 C9.44322119,15.1263788 9.6661404,15.0021934 9.78708344,14.7963974 C9.90811126,14.5906013 9.90811126,14.3354702 9.78708344,14.1296742 C9.6661404,13.9238781 9.44322119,13.7997139 9.20455629,13.805351 L7.89817219,13.805351 C7.65952848,13.7997139 7.43650331,13.9238781 7.31556026,14.1296742 C7.19461722,14.3354702 7.19461722,14.5906013 7.31556026,14.7963974 C7.43650331,15.0021934 7.65952848,15.1263788 7.89817219,15.1207417 L7.89668874,15.1207417 Z" id="Fill-1" fill="#000000" mask="url(#mask-2)"></path>
                </g>
            </g>
        </g>
    </g>
</svg>