<?xml version="1.0" encoding="UTF-8"?>
<svg width="18px" height="22px" viewBox="0 0 18 22" version="1.1" xmlns="http://www.w3.org/2000/svg" xmlns:xlink="http://www.w3.org/1999/xlink">
    <title>ditutubiao-02-01备份 5</title>
    <defs>
        <polygon id="path-1" points="0.00179347826 0.0168512228 17.4357551 0.0168512228 17.4357551 22.0000075 0.00179347826 22.0000075"></polygon>
    </defs>
    <g id="页面-1" stroke="none" stroke-width="1" fill="none" fill-rule="evenodd">
        <g id="扫描地图" transform="translate(-92.000000, -126.000000)">
            <g id="ditutubiao-02-01备份-5" transform="translate(0.000000, -6.000000)">
                <g transform="translate(92.000000, 132.000000)" id="编组">
                    <mask id="mask-2" fill="white">
                        <use xlink:href="#path-1"></use>
                    </mask>
                    <g id="Clip-2"></g>
                    <path d="M14.8913696,2.55128261 C11.4509402,-0.827959239 5.941375,-0.827959239 2.50094565,2.55128261 C-1.0006712,6.00384783 -0.670103261,11.3788125 2.52545652,15.1497799 L8.29214674,21.8346712 C8.51247554,22.0551196 8.86755435,22.0551196 9.08800272,21.8346712 L14.8545734,15.1497799 C18.1848832,11.2440625 18.3929565,6.00384783 14.8913696,2.55128261 Z" id="Fill-1" fill="#48A33C" mask="url(#mask-2)"></path>
                    <path d="M4.4,10.224566 L8.06890001,10.224566 C8.18032926,10.2247819 8.2863216,10.272001 8.35980229,10.3542163 C8.43347521,10.4367284 8.46746964,10.5464656 8.45288883,10.6552316 L7.77028171,15.4 L13.2,8.28858111 L10.1283366,8.28858111 C9.99392404,8.28825732 9.86928694,8.2194253 9.79893658,8.10685486 C9.72866861,7.9943114 9.72265505,7.85400309 9.78314757,7.73595523 L12.1102285,3.3 L7.45609406,3.3 L4.4,10.224566 Z" id="Fill-1" fill="#FFFFFF" mask="url(#mask-2)"></path>
                </g>
            </g>
        </g>
    </g>
</svg>